<svg id="Layer_1" data-name="Layer 1" xmlns="http://www.w3.org/2000/svg" viewBox="0 0 182 179">
  <path d="M72,10A11,11,0,0,1,83,21v8A11,11,0,0,1,72,40H22A11,11,0,0,1,11,29V21A11,11,0,0,1,22,10H72m0-1H22A12,12,0,0,0,10,21v8A12,12,0,0,0,22,41H72A12,12,0,0,0,84,29V21A12,12,0,0,0,72,9Z" transform="translate(-9 -9)"/>
  <path d="M179,10a11,11,0,0,1,11,11v96a11,11,0,0,1-11,11H120a11,11,0,0,1-11-11V21a11,11,0,0,1,11-11h59m0-1H120a12,12,0,0,0-12,12v96a12,12,0,0,0,12,12h59a12,12,0,0,0,12-12V21A12,12,0,0,0,179,9Z" transform="translate(-9 -9)"/><path d="M178,137a11,11,0,0,1,11,11v28a11,11,0,0,1-11,11H21a11,11,0,0,1-11-11V148a11,11,0,0,1,11-11H178m0-1H21A12,12,0,0,0,9,148v28a12,12,0,0,0,12,12H178a12,12,0,0,0,12-12V148a12,12,0,0,0-12-12Z" transform="translate(-9 -9)"/>
  <path d="M72,51A11,11,0,0,1,83,62v8A11,11,0,0,1,72,81H22A11,11,0,0,1,11,70V62A11,11,0,0,1,22,51H72m0-1H22A12,12,0,0,0,10,62v8A12,12,0,0,0,22,82H72A12,12,0,0,0,84,70V62A12,12,0,0,0,72,50Z" transform="translate(-9 -9)"/><path d="M72,91a11,11,0,0,1,11,11v8a11,11,0,0,1-11,11H22a11,11,0,0,1-11-11v-8A11,11,0,0,1,22,91H72m0-1H22a12,12,0,0,0-12,12v8a12,12,0,0,0,12,12H72a12,12,0,0,0,12-12v-8A12,12,0,0,0,72,90Z" transform="translate(-9 -9)"/>
</svg>